<?xml version="1.0" standalone="no"?>
<!DOCTYPE svg PUBLIC "-//W3C//DTD SVG 20010904//EN"
 "http://www.w3.org/TR/2001/REC-SVG-20010904/DTD/svg10.dtd">
<svg version="1.0" xmlns="http://www.w3.org/2000/svg"
 width="1024.000000pt" height="1024.000000pt" viewBox="0 0 1024.000000 1024.000000"
 preserveAspectRatio="xMidYMid meet">

<g transform="translate(0.000000,1024.000000) scale(0.100000,-0.100000)"
fill="#000000" stroke="none">
<path d="M4528 9203 c7 -3 16 -2 19 1 4 3 -2 6 -13 5 -11 0 -14 -3 -6 -6z"/>
<path d="M4478 9193 c7 -3 16 -2 19 1 4 3 -2 6 -13 5 -11 0 -14 -3 -6 -6z"/>
<path d="M4413 9183 c9 -2 23 -2 30 0 6 3 -1 5 -18 5 -16 0 -22 -2 -12 -5z"/>
<path d="M4330 9170 c-20 -6 -21 -8 -5 -8 11 0 29 3 40 8 25 11 -1 11 -35 0z"/>
<path d="M4268 9153 c7 -3 16 -2 19 1 4 3 -2 6 -13 5 -11 0 -14 -3 -6 -6z"/>
<path d="M4228 9143 c7 -3 16 -2 19 1 4 3 -2 6 -13 5 -11 0 -14 -3 -6 -6z"/>
<path d="M4108 9113 c7 -3 16 -2 19 1 4 3 -2 6 -13 5 -11 0 -14 -3 -6 -6z"/>
<path d="M4038 9093 c7 -3 16 -2 19 1 4 3 -2 6 -13 5 -11 0 -14 -3 -6 -6z"/>
<path d="M3415 8860 c-3 -6 1 -7 9 -4 18 7 21 14 7 14 -6 0 -13 -4 -16 -10z"/>
<path d="M6360 8840 c0 -5 5 -10 11 -10 5 0 7 5 4 10 -3 6 -8 10 -11 10 -2 0
-4 -4 -4 -10z"/>
<path d="M6213 8825 c-7 -8 -13 -28 -13 -45 0 -18 -4 -29 -10 -25 -6 4 -10 -5
-10 -19 0 -14 -2 -26 -4 -26 -2 0 -11 -3 -20 -6 -10 -4 -16 -1 -16 9 0 8 -7
18 -16 21 -24 9 -28 7 -15 -8 10 -12 6 -15 -20 -21 -19 -4 -33 -15 -36 -26 -6
-21 -23 -25 -40 -8 -7 7 -19 -4 -42 -40 -17 -28 -31 -54 -31 -57 0 -3 -7 -13
-16 -22 -11 -10 -13 -17 -5 -20 17 -6 13 -42 -4 -42 -8 0 -15 6 -15 13 0 7
-11 24 -25 39 -31 33 -33 53 -5 36 11 -7 20 -18 20 -25 0 -7 4 -13 9 -13 12 0
24 32 14 39 -14 11 -15 43 -1 38 7 -2 12 -10 10 -17 -1 -6 3 -10 10 -8 19 7
21 35 4 41 -9 4 -28 0 -43 -8 -15 -8 -22 -15 -15 -15 6 0 12 -4 12 -9 0 -5
-20 -6 -45 -3 -32 3 -45 1 -45 -8 0 -10 -3 -10 -14 -1 -10 8 -16 9 -21 1 -3
-5 1 -13 9 -16 9 -3 13 -10 10 -16 -3 -5 -12 -7 -19 -4 -8 3 -19 -3 -27 -11
-11 -15 -11 -16 5 -10 10 4 30 7 43 7 17 0 24 6 24 20 0 21 20 29 20 8 1 -16
75 -99 87 -97 24 4 43 -2 37 -12 -3 -6 -15 -9 -25 -6 -11 3 -19 2 -19 -3 0 -4
11 -10 25 -13 27 -5 45 15 45 49 0 14 3 15 12 6 8 -8 8 -15 -1 -25 -12 -15 -5
-47 10 -47 4 0 6 6 3 14 -4 10 1 14 15 13 16 -1 19 -6 15 -23 -4 -17 0 -23 21
-28 15 -4 25 -10 21 -13 -3 -3 6 -12 21 -20 32 -16 44 -8 17 12 -18 13 -18 14
4 8 12 -3 22 -12 22 -20 0 -8 9 -17 20 -20 10 -3 22 -14 25 -24 4 -10 15 -19
26 -19 11 0 28 -8 39 -18 11 -10 36 -24 57 -31 21 -8 45 -22 54 -32 9 -11 22
-19 28 -19 7 0 24 -8 39 -18 58 -40 139 -90 172 -107 19 -9 44 -25 55 -35 20
-18 59 -42 126 -79 20 -11 39 -27 42 -36 4 -8 11 -15 17 -15 5 0 21 -10 34
-21 14 -12 54 -43 90 -68 35 -25 115 -89 178 -142 551 -469 961 -1161 1112
-1877 132 -624 74 -1372 -150 -1937 -278 -700 -783 -1302 -1398 -1664 -404
-238 -887 -390 -1321 -416 -55 -3 -124 -8 -154 -10 -79 -6 -352 12 -510 35
-640 90 -1252 388 -1721 836 -281 270 -479 533 -664 886 -193 368 -318 779
-361 1190 -17 170 -20 519 -5 688 66 719 343 1361 831 1925 79 90 352 359 439
431 84 70 121 95 130 89 6 -4 9 -1 8 7 -2 7 4 12 14 10 9 -1 22 7 28 18 6 11
15 18 20 15 5 -3 37 12 71 33 34 22 56 41 49 44 -7 2 10 19 39 37 28 18 51 37
51 42 0 5 9 9 20 9 10 0 34 14 52 32 19 19 34 26 36 19 3 -9 7 -9 17 -1 8 6
11 18 8 26 -4 10 2 14 21 14 15 0 25 5 24 13 -2 7 6 11 20 9 15 -2 22 2 22 13
0 12 6 15 19 10 14 -4 21 0 26 15 5 17 12 20 32 15 22 -5 24 -3 17 17 -6 19
-4 21 7 11 11 -9 18 -8 31 1 10 7 14 17 10 21 -4 5 1 5 11 2 14 -5 29 4 57 33
31 32 46 40 74 40 27 0 34 3 30 15 -4 8 -1 15 5 15 6 0 11 -5 11 -12 0 -7 7
-5 18 5 20 18 98 40 112 32 13 -8 12 -3 0 31 -9 24 -9 25 5 14 13 -11 19 -10
33 4 24 21 31 20 42 -6 8 -22 9 -22 9 -2 1 17 8 21 36 22 19 1 35 -3 35 -8 0
-19 15 -10 27 15 11 24 10 25 -19 22 -17 -1 -33 3 -35 10 -3 7 3 10 16 6 12
-3 20 1 23 11 2 14 9 12 34 -12 32 -29 54 -31 54 -5 0 13 -3 13 -15 3 -12 -10
-15 -10 -15 4 0 9 5 16 11 16 6 0 9 6 6 14 -3 8 2 17 11 21 13 5 14 8 3 15
-10 5 -12 20 -9 48 5 33 3 39 -8 35 -8 -3 -14 -14 -12 -24 2 -10 -1 -17 -7
-16 -5 1 -9 5 -8 9 2 4 -6 12 -17 18 -14 7 -20 7 -20 0 0 -5 -7 -10 -15 -10
-8 0 -15 -4 -15 -10 0 -5 -4 -10 -9 -10 -6 0 -22 -11 -37 -25 -15 -14 -31 -25
-37 -25 -5 0 9 16 32 36 47 42 52 57 15 48 -18 -5 -32 0 -49 16 -20 19 -27 21
-40 10 -8 -7 -15 -9 -15 -4 0 4 -5 3 -12 -4 -13 -13 -32 -17 -24 -4 2 4 -2 16
-10 27 -13 17 -14 18 -14 1 0 -13 -5 -16 -17 -12 -9 4 -31 2 -49 -4 -36 -12
-67 -4 -43 11 7 4 10 11 6 15 -3 4 -12 2 -19 -3 -7 -6 -28 -13 -45 -16 -31 -6
-32 -5 -21 13 14 22 24 25 33 10 4 -6 11 -8 16 -4 15 9 -22 33 -41 26 -8 -2
-20 -12 -27 -20 -7 -8 -24 -16 -38 -18 -15 -1 -24 0 -21 3 11 11 -16 45 -31
39 -9 -4 -17 1 -20 14 -6 23 -23 27 -23 5 0 -8 -4 -15 -10 -15 -5 0 -10 4 -10
10 0 5 -7 7 -17 3 -13 -5 -15 -2 -11 15 4 12 2 22 -4 22 -5 0 -6 5 -3 10 3 6
1 10 -5 10 -7 0 -9 -8 -5 -20 8 -24 -2 -26 -26 -4 -16 15 -17 14 -12 -5 6 -23
-21 -31 -31 -8 -3 8 -8 7 -16 -6 -6 -9 -15 -15 -21 -12 -5 4 -12 -1 -15 -9 -3
-9 -10 -14 -15 -11 -4 3 -6 12 -2 20 3 10 0 14 -8 11 -28 -10 -98 -15 -102 -8
-2 4 -3 2 -1 -4 1 -6 -2 -17 -7 -25 -8 -12 -10 -12 -18 1 -5 8 -7 18 -4 23 3
5 0 7 -8 5 -8 -3 -13 -11 -11 -17 3 -15 -25 -14 -31 2 -4 9 -6 9 -6 0 -1 -8
-14 -10 -41 -7 -26 3 -40 1 -40 -7 0 -6 7 -9 15 -5 8 3 15 0 15 -5 0 -7 -11
-9 -27 -6 -18 3 -34 0 -46 -11 -13 -12 -20 -13 -29 -4 -16 16 -28 15 -28 -1 0
-15 -62 -37 -103 -37 -14 0 -30 -6 -34 -13 -4 -7 -24 -19 -43 -27 -19 -8 -57
-27 -83 -42 -26 -15 -57 -28 -67 -28 -11 0 -20 -4 -20 -8 0 -5 -27 -21 -60
-37 -33 -16 -60 -32 -60 -36 0 -4 -9 -11 -21 -14 -24 -8 -84 -45 -115 -72 -11
-10 -31 -24 -44 -32 -40 -23 -150 -112 -150 -122 0 -5 -5 -9 -11 -9 -31 0
-355 -322 -495 -490 -393 -475 -651 -980 -823 -1610 -42 -152 -56 -177 -21
-37 119 474 315 927 565 1307 180 273 318 443 540 665 132 133 244 233 385
345 58 45 99 81 93 79 -13 -4 -42 -26 -222 -168 -192 -152 -536 -511 -680
-711 -66 -93 -239 -358 -286 -440 -140 -245 -290 -597 -355 -835 -12 -44 -28
-98 -35 -120 -28 -87 -85 -313 -94 -370 -5 -33 -15 -107 -24 -165 -28 -189
-37 -322 -37 -547 0 -311 34 -626 96 -877 39 -161 74 -284 69 -246 -2 19 -7
53 -10 75 -3 22 6 -3 20 -55 95 -355 255 -752 427 -1054 120 -210 301 -471
453 -652 150 -179 451 -463 650 -614 99 -75 364 -249 465 -304 351 -195 789
-364 1110 -430 281 -57 438 -75 715 -83 281 -7 459 5 715 48 731 123 1454 486
2040 1023 214 196 473 495 627 724 42 62 79 108 83 103 3 -6 14 4 24 22 l18
32 -21 -25 c-37 -44 -23 -13 54 120 96 167 128 231 207 415 205 475 326 988
359 1527 24 389 -24 892 -121 1270 -199 777 -676 1550 -1265 2047 -176 149
-283 231 -301 231 -7 0 -30 16 -51 35 -21 19 -54 42 -73 52 -19 9 -49 27 -66
40 -18 13 -56 32 -85 42 -29 11 -58 26 -65 35 -6 9 -18 16 -26 16 -9 0 -29 7
-44 15 -16 8 -36 15 -45 15 -8 0 -24 6 -35 14 -13 10 -23 11 -31 4 -10 -8 -13
-5 -13 11 0 22 -16 29 -22 10 -3 -8 -10 -6 -21 5 -10 11 -25 15 -36 11 -16 -5
-18 -2 -14 15 5 19 3 20 -21 9 -14 -7 -26 -19 -26 -27 0 -20 -11 -9 -14 15 -2
10 -9 18 -17 18 -8 0 -13 -8 -11 -19 3 -17 1 -18 -12 -7 -8 7 -12 19 -9 27 4
12 0 13 -22 4 -32 -12 -49 -3 -22 11 16 9 25 39 11 39 -18 0 -44 -24 -44 -40
0 -11 -5 -20 -11 -20 -6 0 -8 8 -5 18 3 9 1 24 -4 32 -8 12 -11 11 -16 -7 -8
-31 -22 -29 -30 3 -4 14 -9 22 -13 17 -7 -10 -48 -33 -58 -33 -5 0 -1 4 7 10
26 16 5 20 -25 4 l-30 -15 24 25 c29 30 11 36 -19 6 -24 -24 -30 -25 -30 -6 0
23 -13 26 -53 12 -45 -15 -62 -31 -24 -22 25 6 27 5 15 -13 -8 -13 -16 -17
-24 -11 -6 6 -14 7 -17 3 -4 -3 -15 2 -26 11 -18 17 -20 17 -29 -1 -10 -17
-11 -17 -31 1 -11 10 -25 15 -31 11 -9 -5 -10 -1 -5 14 7 24 5 26 -12 6z m27
-45 c0 -5 -4 -10 -10 -10 -5 0 -10 5 -10 10 0 6 5 10 10 10 6 0 10 -4 10 -10z
m169 -21 c-16 -10 -23 -4 -14 10 3 6 11 8 17 5 6 -4 5 -9 -3 -15z m-49 -9 c0
-5 -4 -10 -10 -10 -5 0 -10 5 -10 10 0 6 5 10 10 10 6 0 10 -4 10 -10z m-2460
-10 c0 -5 -2 -10 -4 -10 -3 0 -8 5 -11 10 -3 6 -1 10 4 10 6 0 11 -4 11 -10z
m2348 -2 c-3 -7 -18 -14 -34 -16 l-29 -3 25 15 c32 18 43 19 38 4z m-108 -63
c-14 -17 -70 -20 -70 -4 0 7 11 8 29 4 17 -3 32 -2 36 4 3 6 9 11 12 11 3 0 0
-7 -7 -15z m-1890 -25 c-13 -9 -13 -11 0 -20 8 -5 11 -10 5 -10 -16 0 -31 13
-38 34 -6 14 -3 17 8 12 8 -3 15 0 15 6 0 9 3 9 12 0 10 -10 10 -15 -2 -22z
m-70 10 c0 -5 -4 -10 -10 -10 -5 0 -10 5 -10 10 0 6 5 10 10 10 6 0 10 -4 10
-10z m162 -12 c-7 -7 -12 -8 -12 -2 0 14 12 26 19 19 2 -3 -1 -11 -7 -17z m48
12 c0 -5 -4 -10 -10 -10 -5 0 -10 5 -10 10 0 6 5 10 10 10 6 0 10 -4 10 -10z
m-200 -35 c-7 -9 -15 -13 -17 -11 -6 6 20 36 26 30 2 -2 -2 -10 -9 -19z m213
0 c-10 -7 -20 -12 -21 -10 -7 7 23 33 31 28 5 -3 0 -11 -10 -18z m112 5 c-3
-5 -12 -10 -18 -10 -7 0 -6 4 3 10 19 12 23 12 15 0z m1525 -10 c0 -5 -4 -10
-10 -10 -5 0 -10 5 -10 10 0 6 5 10 10 10 6 0 10 -4 10 -10z m-1695 -10 c-3
-5 -11 -10 -16 -10 -6 0 -7 5 -4 10 3 6 11 10 16 10 6 0 7 -4 4 -10z m215 -22
c0 -5 -4 -6 -10 -3 -21 13 -31 -7 -14 -26 9 -10 13 -19 8 -19 -5 0 -17 9 -26
19 -14 17 -14 20 -1 34 16 16 43 13 43 -5z m-76 -17 c4 -5 -3 -7 -14 -4 -23 6
-26 13 -6 13 8 0 17 -4 20 -9z m1490 -25 c-3 -9 -10 -13 -16 -10 -5 3 -4 12 3
20 15 18 22 13 13 -10z m-1532 -36 c12 -11 18 -20 12 -20 -11 1 -44 25 -44 34
0 11 10 7 32 -14z m1586 -45 c-3 -3 -9 2 -12 12 -6 14 -5 15 5 6 7 -7 10 -15
7 -18z m-2478 -489 c0 -6 -66 -46 -76 -46 -14 0 49 49 64 50 6 0 12 -2 12 -4z
m-2370 -2056 l-11 -25 6 25 c2 14 5 34 6 45 2 19 2 19 6 0 2 -12 -1 -32 -7
-45z m-23 -132 c-3 -7 -5 -2 -5 12 0 14 2 19 5 13 2 -7 2 -19 0 -25z m-10 -55
c-3 -10 -5 -4 -5 12 0 17 2 24 5 18 2 -7 2 -21 0 -30z m-30 -270 c-3 -10 -5
-4 -5 12 0 17 2 24 5 18 2 -7 2 -21 0 -30z m-10 -115 c-3 -8 -6 -5 -6 6 -1 11
2 17 5 13 3 -3 4 -12 1 -19z m0 -565 c-2 -16 -4 -5 -4 22 0 28 2 40 4 28 2
-13 2 -35 0 -50z m50 -405 c-3 -8 -6 -5 -6 6 -1 11 2 17 5 13 3 -3 4 -12 1
-19z m20 -110 c-3 -8 -6 -5 -6 6 -1 11 2 17 5 13 3 -3 4 -12 1 -19z m10 -40
c-3 -8 -6 -5 -6 6 -1 11 2 17 5 13 3 -3 4 -12 1 -19z m10 -50 c-3 -7 -5 -2 -5
12 0 14 2 19 5 13 2 -7 2 -19 0 -25z m10 -40 c-3 -8 -6 -5 -6 6 -1 11 2 17 5
13 3 -3 4 -12 1 -19z"/>
<path d="M6290 8830 c0 -5 5 -10 10 -10 6 0 10 5 10 10 0 6 -4 10 -10 10 -5 0
-10 -4 -10 -10z"/>
<path d="M3758 8793 c7 -3 16 -2 19 1 4 3 -2 6 -13 5 -11 0 -14 -3 -6 -6z"/>
<path d="M6147 8793 c-11 -10 -8 -53 3 -53 6 0 10 9 10 20 0 14 5 18 18 13 15
-6 15 -5 3 10 -14 18 -24 21 -34 10z"/>
<path d="M3976 8781 c-3 -5 1 -11 9 -15 8 -3 15 -1 15 4 0 13 -18 22 -24 11z"/>
<path d="M4017 8773 c-4 -3 -7 -11 -7 -17 0 -6 5 -5 12 2 6 6 9 14 7 17 -3 3
-9 2 -12 -2z"/>
<path d="M4090 8770 c0 -5 5 -10 10 -10 6 0 10 5 10 10 0 6 -4 10 -10 10 -5 0
-10 -4 -10 -10z"/>
<path d="M4060 8760 c0 -5 5 -10 11 -10 5 0 7 5 4 10 -3 6 -8 10 -11 10 -2 0
-4 -4 -4 -10z"/>
<path d="M6060 8752 c0 -11 6 -22 14 -25 10 -4 12 0 9 14 -7 27 -23 34 -23 11z"/>
<path d="M3200 8750 c-9 -6 -10 -10 -3 -10 6 0 15 5 18 10 8 12 4 12 -15 0z"/>
<path d="M4036 8743 c-11 -11 -6 -23 9 -23 8 0 15 4 15 9 0 13 -16 22 -24 14z"/>
<path d="M4325 8730 c-3 -5 -1 -10 4 -10 6 0 11 5 11 10 0 6 -2 10 -4 10 -3 0
-8 -4 -11 -10z"/>
<path d="M4475 8730 c-3 -5 -1 -10 4 -10 6 0 11 5 11 10 0 6 -2 10 -4 10 -3 0
-8 -4 -11 -10z"/>
<path d="M4411 8721 c-12 -8 -12 -12 -2 -25 8 -9 21 -16 29 -16 13 0 13 2 -3
13 -10 8 -15 19 -11 25 9 14 6 15 -13 3z"/>
<path d="M4535 8710 c3 -5 18 -10 32 -10 32 0 28 5 -10 14 -19 4 -26 3 -22 -4z"/>
<path d="M5990 8716 c0 -2 8 -10 18 -17 15 -13 16 -12 3 4 -13 16 -21 21 -21
13z"/>
<path d="M3087 8686 c-48 -29 -61 -43 -22 -23 31 16 74 46 65 46 -3 0 -22 -10
-43 -23z"/>
<path d="M4464 8699 c-9 -15 18 -21 32 -7 12 12 11 14 -7 14 -11 0 -22 -4 -25
-7z"/>
<path d="M6031 8694 c0 -11 3 -14 6 -6 3 7 2 16 -1 19 -3 4 -6 -2 -5 -13z"/>
<path d="M5944 8675 c-17 -26 -14 -42 6 -30 6 4 9 13 6 21 -3 9 0 14 7 12 15
-3 23 15 8 20 -5 2 -17 -8 -27 -23z"/>
<path d="M4600 8680 c0 -5 6 -10 14 -10 8 0 16 -5 18 -12 6 -16 28 0 28 20 0
15 -2 15 -10 2 -7 -12 -12 -12 -22 -2 -15 15 -28 16 -28 2z"/>
<path d="M4676 8662 c-2 -4 2 -15 9 -25 12 -17 13 -16 11 7 -1 25 -10 34 -20
18z"/>
<path d="M5880 8660 c0 -5 5 -10 11 -10 5 0 7 5 4 10 -3 6 -8 10 -11 10 -2 0
-4 -4 -4 -10z"/>
<path d="M3004 8634 c-18 -14 -18 -15 4 -4 12 6 22 13 22 15 0 8 -5 6 -26 -11z"/>
<path d="M5810 8646 c0 -2 7 -9 15 -16 12 -10 15 -10 15 4 0 9 -7 16 -15 16
-8 0 -15 -2 -15 -4z"/>
<path d="M4603 8633 c-14 -5 -18 -33 -5 -33 10 0 32 22 32 32 0 9 -8 9 -27 1z"/>
<path d="M4730 8625 c0 -8 -7 -15 -15 -15 -8 0 -15 -4 -15 -10 0 -15 16 -12
34 6 18 18 21 34 6 34 -5 0 -10 -7 -10 -15z"/>
<path d="M5560 8630 c0 -5 5 -10 10 -10 6 0 10 5 10 10 0 6 -4 10 -10 10 -5 0
-10 -4 -10 -10z"/>
<path d="M4660 8620 c0 -5 5 -10 11 -10 5 0 7 5 4 10 -3 6 -8 10 -11 10 -2 0
-4 -4 -4 -10z"/>
<path d="M5610 8620 c0 -5 5 -10 10 -10 6 0 10 5 10 10 0 6 -4 10 -10 10 -5 0
-10 -4 -10 -10z"/>
<path d="M5698 8605 c-4 -20 -3 -23 8 -14 16 13 19 39 5 39 -5 0 -11 -11 -13
-25z"/>
<path d="M5406 8607 c3 -10 9 -15 12 -12 3 3 0 11 -7 18 -10 9 -11 8 -5 -6z"/>
<path d="M2919 8579 l-24 -20 28 17 c15 9 27 18 27 20 0 8 -8 4 -31 -17z"/>
<path d="M4624 8588 c3 -11 0 -18 -8 -18 -8 0 -16 -7 -20 -15 -7 -18 14 -20
37 -2 16 11 16 14 2 32 -14 17 -16 17 -11 3z"/>
<path d="M4667 8593 c-4 -3 -7 -11 -7 -17 0 -6 5 -5 12 2 6 6 9 14 7 17 -3 3
-9 2 -12 -2z"/>
<path d="M5725 8580 c3 -5 11 -10 16 -10 6 0 7 5 4 10 -3 6 -11 10 -16 10 -6
0 -7 -4 -4 -10z"/>
<path d="M4734 8555 c-20 -15 -11 -18 20 -6 11 4 15 10 9 14 -5 3 -19 0 -29
-8z"/>
<path d="M2855 8534 l-30 -26 33 22 c17 12 32 23 32 26 0 7 -4 5 -35 -22z"/>
<path d="M4690 8551 c0 -6 4 -13 10 -16 6 -3 7 1 4 9 -7 18 -14 21 -14 7z"/>
<path d="M5696 8545 c-3 -9 0 -15 9 -15 8 0 15 7 15 15 0 8 -4 15 -9 15 -5 0
-11 -7 -15 -15z"/>
<path d="M4647 8533 c-12 -12 -7 -22 8 -17 8 4 15 10 15 15 0 11 -14 12 -23 2z"/>
<path d="M5814 8514 c3 -9 6 -18 6 -20 0 -2 7 -4 15 -4 19 0 19 7 1 26 -19 19
-30 18 -22 -2z"/>
<path d="M5772 8511 c2 -7 7 -12 11 -12 12 1 9 15 -3 20 -7 2 -11 -2 -8 -8z"/>
<path d="M5810 8470 c0 -5 5 -10 10 -10 6 0 10 5 10 10 0 6 -4 10 -10 10 -5 0
-10 -4 -10 -10z"/>
<path d="M4125 8340 c3 -5 8 -10 11 -10 2 0 4 5 4 10 0 6 -5 10 -11 10 -5 0
-7 -4 -4 -10z"/>
<path d="M4875 8324 c-16 -3 -79 -11 -140 -20 -473 -65 -839 -193 -1219 -426
-172 -105 -238 -152 -371 -264 -563 -471 -965 -1156 -1099 -1873 -28 -145 -45
-317 -52 -499 -7 -188 4 -446 17 -382 7 38 8 36 15 -28 2 -24 8 -52 14 -61 5
-10 7 -21 3 -24 -3 -4 -1 -32 6 -64 6 -32 13 -78 15 -103 2 -25 5 -47 6 -50 1
-3 3 -9 4 -15 1 -5 5 -17 8 -25 3 -8 15 -55 27 -105 12 -49 29 -117 37 -150 9
-33 17 -64 18 -70 1 -5 13 -44 26 -85 14 -41 24 -79 25 -85 0 -5 6 -16 12 -23
7 -7 13 -26 13 -42 0 -16 6 -33 13 -37 13 -8 32 -45 77 -151 39 -91 32 -50 -9
54 -34 87 -118 344 -150 460 -49 182 -96 492 -104 699 -13 308 50 772 145
1075 34 107 135 364 174 443 43 86 155 282 176 308 11 13 4 -5 -16 -41 -244
-437 -359 -777 -423 -1250 -28 -209 -25 -651 5 -860 48 -325 114 -566 232
-840 177 -416 357 -680 684 -1006 219 -218 357 -325 616 -476 688 -401 1493
-511 2260 -307 669 178 1279 618 1686 1219 361 533 552 1130 571 1785 16 561
-98 1070 -351 1570 -68 134 -75 149 -53 120 75 -102 237 -473 301 -690 168
-569 185 -1157 51 -1680 -34 -133 -131 -429 -179 -544 -14 -35 -24 -66 -23
-68 5 -4 97 185 97 200 0 6 18 57 40 111 22 55 40 107 40 117 0 9 7 29 15 45
8 16 17 48 21 71 3 24 10 43 15 43 5 0 6 7 3 15 -5 11 1 15 20 15 14 0 26 4
26 10 0 5 -6 7 -14 4 -17 -7 -15 31 4 81 9 23 13 26 20 15 8 -13 10 -12 10 3
0 9 -4 17 -10 17 -5 0 -10 11 -10 24 0 25 20 48 20 24 1 -28 20 20 21 53 1 19
5 48 10 64 34 120 51 592 28 821 -53 544 -237 1048 -565 1539 -222 334 -499
609 -849 841 -384 256 -799 410 -1295 481 -101 14 -625 27 -695 17z m-2251
-1459 c-9 -14 -18 -25 -21 -25 -5 0 5 18 20 38 17 22 18 13 1 -13z m2676 -345
c289 -35 543 -142 745 -314 108 -92 117 -100 179 -176 221 -265 339 -578 353
-930 16 -405 -111 -766 -376 -1069 -31 -36 -97 -99 -147 -140 -570 -472 -1400
-429 -1921 98 -119 121 -200 235 -274 386 -104 214 -149 414 -150 659 0 316
80 589 246 841 300 454 828 707 1345 645z"/>
<path d="M4210 5640 c-6 -11 -8 -25 -5 -30 8 -13 5 -12 -34 1 -17 6 -31 15
-31 20 0 5 -4 9 -9 9 -5 0 -7 -8 -4 -18 3 -14 -1 -19 -19 -18 -19 1 -22 -3
-20 -24 4 -21 2 -22 -12 -11 -14 11 -16 11 -16 -3 0 -9 -4 -16 -10 -16 -5 0
-10 -7 -10 -15 0 -8 -4 -15 -9 -15 -22 0 -61 -49 -65 -81 -2 -18 -8 -35 -15
-37 -8 -3 -8 -9 0 -24 10 -18 8 -19 -13 -13 -23 8 -23 8 -4 -14 16 -18 17 -21
3 -21 -20 0 -26 -19 -16 -48 7 -17 5 -28 -7 -39 -10 -10 -13 -25 -10 -39 5
-17 2 -24 -8 -24 -12 0 -14 -11 -11 -55 2 -30 0 -57 -5 -60 -15 -9 -12 -25 4
-25 13 0 13 -4 0 -35 -14 -35 -12 -103 4 -114 5 -3 11 -14 15 -23 4 -12 2 -15
-9 -11 -7 3 -14 1 -14 -5 0 -6 6 -12 13 -15 9 -3 9 -9 1 -23 -9 -15 -8 -21 5
-31 14 -11 14 -13 -4 -28 -18 -15 -18 -16 -1 -11 15 5 18 2 14 -18 -3 -15 0
-27 8 -30 20 -8 17 -26 -3 -26 -11 0 -14 -3 -7 -8 6 -4 15 -18 19 -32 4 -14
12 -28 18 -32 7 -4 7 -11 -2 -21 -8 -10 -9 -17 -1 -22 5 -3 10 -15 10 -25 0
-10 4 -20 10 -22 5 -1 11 -13 13 -26 2 -13 9 -27 16 -31 7 -4 9 -15 5 -26 -5
-12 -4 -16 3 -12 6 4 14 0 17 -9 3 -8 2 -12 -4 -9 -6 3 -10 0 -10 -8 0 -8 7
-17 15 -21 9 -3 12 -12 8 -22 -4 -11 -2 -15 7 -12 8 2 21 -10 32 -31 20 -40
23 -55 7 -46 -6 4 -5 -2 2 -13 7 -11 19 -18 27 -14 11 4 13 0 7 -16 -5 -18 -2
-22 15 -22 15 0 20 -5 17 -15 -4 -8 4 -22 17 -32 12 -10 21 -24 19 -30 -3 -7
7 -15 21 -19 14 -3 26 -11 26 -16 0 -9 44 -54 119 -121 18 -15 36 -25 41 -22
6 3 10 1 10 -4 0 -6 7 -11 15 -11 9 0 12 -6 9 -15 -5 -11 -2 -13 10 -9 9 3 16
1 16 -4 0 -6 25 -27 55 -47 30 -21 55 -41 55 -46 0 -4 7 -6 15 -3 8 4 15 1 15
-5 0 -6 7 -8 15 -5 8 4 15 2 15 -4 0 -6 9 -8 20 -5 11 3 20 0 20 -6 0 -6 7
-11 16 -11 8 0 13 -4 10 -9 -5 -8 62 -26 91 -24 7 0 11 -3 8 -7 -5 -9 55 -22
76 -17 8 2 11 2 6 0 -18 -11 6 -21 28 -13 17 7 25 6 25 -1 0 -6 6 -9 13 -6 7
3 24 -1 37 -8 15 -8 29 -10 36 -4 6 4 33 5 61 0 29 -4 78 -6 110 -4 32 2 86 5
120 6 34 1 59 5 57 9 -2 3 10 7 28 7 66 1 93 6 107 19 10 10 16 10 27 1 10 -8
14 -8 14 -1 0 6 7 9 15 6 8 -4 15 -1 15 6 0 7 7 10 15 6 8 -3 15 -1 15 4 0 6
8 10 18 10 11 0 27 9 37 20 10 11 21 17 26 15 4 -3 25 3 46 14 50 26 96 45
106 43 4 -1 7 4 7 11 0 7 10 13 22 14 11 1 24 7 28 13 4 7 10 11 14 11 14 -3
85 62 79 72 -4 6 2 8 15 5 15 -4 22 -2 22 8 0 8 7 17 15 20 22 9 81 66 88 87
4 10 11 15 17 12 5 -3 15 6 20 20 5 14 14 23 20 20 5 -3 10 0 10 8 0 8 9 22
20 32 12 10 18 25 16 32 -3 7 1 13 8 13 18 0 28 27 13 34 -9 3 -9 5 1 5 6 1
12 7 12 15 0 7 9 16 21 19 12 3 18 10 15 16 -4 5 5 27 19 48 15 20 24 45 22
55 -3 10 -2 18 1 18 8 0 37 62 34 72 -1 4 5 25 13 48 8 23 12 59 10 80 -4 32
-2 38 9 34 10 -4 14 1 13 15 -1 12 -4 21 -8 21 -4 0 -5 9 -2 20 3 11 9 18 13
15 5 -3 7 30 6 72 -1 43 2 86 7 97 7 14 6 17 -5 10 -11 -6 -11 -5 0 8 10 13
10 19 -2 31 -8 8 -12 17 -9 21 3 3 7 26 8 51 2 33 -1 48 -13 54 -14 8 -14 11
-2 26 9 11 10 19 4 23 -15 10 -25 42 -14 42 6 0 10 5 10 11 0 5 -4 8 -9 4 -5
-3 -12 -1 -15 4 -4 5 -2 12 4 16 16 10 12 35 -5 29 -11 -5 -15 1 -15 19 0 14
-8 31 -17 37 -17 11 -17 11 -1 6 26 -8 31 11 8 27 -12 8 -18 20 -15 30 4 8 1
18 -4 22 -6 3 -9 10 -6 15 5 8 -13 27 -65 71 -23 19 -23 21 -7 30 25 14 11 32
-15 18 -16 -8 -19 -8 -13 1 4 7 2 16 -6 20 -10 7 -10 11 0 23 8 10 8 17 2 21
-6 4 -15 -3 -21 -15 l-12 -21 -19 21 c-11 12 -25 19 -31 15 -6 -4 -14 -1 -18
6 -4 7 -13 9 -19 5 -16 -9 18 -35 36 -28 7 3 13 -2 13 -11 0 -9 -7 -16 -15
-16 -8 0 -15 4 -15 9 0 5 -12 13 -28 19 -34 12 -76 -2 -69 -23 4 -9 1 -12 -9
-8 -19 7 -44 -14 -44 -38 0 -10 -5 -21 -12 -25 -8 -5 -9 0 -6 14 7 25 -7 30
-16 6 -3 -8 -10 -12 -16 -9 -5 3 -10 1 -10 -5 0 -7 -8 -9 -19 -5 -16 5 -18 2
-14 -16 4 -15 0 -26 -12 -35 -15 -12 -20 -11 -32 4 -13 16 -13 15 -4 -3 12
-27 -9 -61 -28 -42 -14 14 -31 -5 -31 -36 0 -12 -4 -15 -12 -11 -6 4 -26 8
-43 9 -24 0 -31 -4 -31 -18 0 -13 6 -17 18 -14 10 3 18 1 18 -4 0 -9 -19 -12
-57 -10 -11 1 -24 -3 -28 -8 -10 -17 -38 -13 -31 4 5 13 2 14 -16 4 -16 -9
-18 -13 -7 -20 7 -4 11 -9 9 -11 -48 -31 -74 -33 -45 -4 9 9 13 16 8 16 -5 0
-15 -6 -21 -12 -10 -10 -15 -10 -21 1 -6 9 -15 11 -27 6 -18 -8 -18 -8 -1 -12
22 -6 22 -14 -3 -41 -25 -27 -29 -27 -47 -4 -11 13 -14 14 -10 2 3 -10 -2 -16
-14 -17 -10 -1 -19 2 -19 8 0 5 5 9 10 9 6 0 10 7 10 15 0 22 -18 18 -25 -5
-3 -11 -11 -20 -17 -20 -6 0 -17 -8 -24 -17 -13 -17 -14 -17 -7 2 3 11 11 23
17 27 6 4 7 10 3 14 -3 4 -13 1 -21 -5 -9 -7 -24 -10 -37 -6 -18 6 -20 4 -15
-13 4 -11 2 -23 -3 -26 -5 -4 -12 7 -16 24 -8 35 -26 41 -22 8 1 -17 -3 -22
-15 -20 -10 2 -18 -3 -18 -9 0 -7 -3 -10 -6 -7 -3 4 0 17 6 30 10 19 10 21 -1
11 -7 -7 -23 -13 -36 -13 -13 0 -23 -4 -23 -10 0 -5 -4 -10 -10 -10 -5 0 -10
6 -10 13 0 16 -69 15 -78 0 -5 -8 -12 -8 -24 1 -10 7 -15 16 -11 19 3 4 -6 7
-20 7 -15 0 -27 -4 -27 -10 0 -5 -5 -10 -10 -10 -6 0 -3 11 5 24 11 16 13 26
6 31 -6 3 -11 -1 -11 -9 0 -9 -8 -16 -18 -16 -10 0 -23 -5 -30 -12 -9 -9 -12
-7 -12 9 0 11 -6 26 -14 32 -11 9 -12 6 -8 -16 5 -27 4 -27 -15 -10 -22 19
-53 23 -53 6 0 -5 -4 -8 -10 -4 -5 3 -2 14 7 25 9 10 20 17 25 14 4 -3 8 0 8
5 0 16 -16 13 -34 -5 -16 -16 -41 -10 -30 7 3 6 -2 17 -12 24 -17 13 -21 12
-41 -12 -12 -15 -25 -25 -28 -21 -3 3 1 13 10 21 8 9 15 18 15 20 0 7 -55 1
-68 -7 -17 -10 -15 0 4 19 12 12 19 13 30 4 11 -9 14 -8 14 5 0 9 -3 15 -7 14
-16 -4 -73 14 -73 23 0 5 -11 9 -25 9 -14 0 -25 5 -25 11 0 5 4 7 10 4 5 -3 7
0 4 9 -3 8 -12 12 -20 9 -8 -3 -14 0 -14 6 0 6 -9 11 -20 11 -13 0 -20 7 -20
20 0 11 5 20 12 20 6 0 8 3 5 6 -13 13 -38 -18 -31 -39 4 -13 2 -17 -5 -13 -6
4 -11 16 -11 27 0 15 -6 19 -22 17 -11 -2 -23 3 -26 11 -2 8 0 11 6 8 5 -4 15
0 22 8 10 12 7 14 -17 12 -22 -2 -28 2 -28 19 0 11 -6 28 -14 37 -15 19 -41
23 -41 6 0 -5 -4 -7 -10 -4 -17 10 -11 25 10 25 11 0 20 5 20 10 0 12 -2 12
-34 0 -17 -6 -26 -6 -26 0 0 6 9 10 20 10 11 0 20 4 20 8 0 5 -13 7 -29 4 -21
-3 -31 -11 -34 -26 -3 -18 -5 -17 -16 10 -9 24 -17 31 -32 27 -21 -6 -25 7 -7
25 9 9 9 12 0 12 -6 0 -16 -9 -22 -20z m38 -65 c-3 -3 -9 2 -12 12 -6 14 -5
15 5 6 7 -7 10 -15 7 -18z m-113 5 c3 -5 -1 -10 -9 -10 -9 0 -16 5 -16 10 0 6
4 10 9 10 6 0 13 -4 16 -10z m-25 -36 c0 -8 -5 -12 -10 -9 -6 4 -8 11 -5 16 9
14 15 11 15 -7z m258 -25 c-11 -7 -10 -11 2 -19 9 -6 10 -10 3 -10 -20 0 -24
17 -11 47 9 23 12 25 16 9 2 -10 -2 -23 -10 -27z m-288 12 c0 -12 -20 -25 -27
-18 -7 7 6 27 18 27 5 0 9 -4 9 -9z m180 5 c0 -3 -4 -8 -10 -11 -5 -3 -10 -1
-10 4 0 6 5 11 10 11 6 0 10 -2 10 -4z m1810 -16 c0 -5 -7 -10 -15 -10 -9 0
-12 -6 -9 -15 4 -8 1 -15 -5 -15 -12 0 -14 11 -5 34 7 17 34 22 34 6z m120
-10 c0 -5 -2 -10 -4 -10 -3 0 -8 5 -11 10 -3 6 -1 10 4 10 6 0 11 -4 11 -10z
m-2150 -14 c0 -3 -4 -8 -10 -11 -5 -3 -10 -1 -10 4 0 6 5 11 10 11 6 0 10 -2
10 -4z m1960 -5 c0 -6 -4 -13 -10 -16 -5 -3 -10 1 -10 9 0 9 5 16 10 16 6 0
10 -4 10 -9z m-1990 -41 c0 -5 -7 -10 -15 -10 -8 0 -15 5 -15 10 0 6 7 10 15
10 8 0 15 -4 15 -10z m400 0 c0 -5 -5 -10 -11 -10 -5 0 -7 5 -4 10 3 6 8 10
11 10 2 0 4 -4 4 -10z m60 -56 c0 -2 -7 -4 -15 -4 -8 0 -15 4 -15 10 0 5 7 7
15 4 8 -4 15 -8 15 -10z m70 -4 c0 -5 -7 -10 -15 -10 -8 0 -15 5 -15 10 0 6 7
10 15 10 8 0 15 -4 15 -10z m80 -60 c0 -5 -4 -10 -10 -10 -5 0 -10 5 -10 10 0
6 5 10 10 10 6 0 10 -4 10 -10z m123 -65 c4 -8 2 -17 -3 -20 -6 -4 -10 3 -10
14 0 25 6 27 13 6z m897 -20 c-7 -9 -15 -13 -17 -11 -7 7 7 26 19 26 6 0 6 -6
-2 -15z m80 11 c0 -3 -4 -8 -10 -11 -5 -3 -10 -1 -10 4 0 6 5 11 10 11 6 0 10
-2 10 -4z m-50 -26 c0 -5 -5 -10 -11 -10 -5 0 -7 5 -4 10 3 6 8 10 11 10 2 0
4 -4 4 -10z m-160 -40 c0 -5 -8 -10 -17 -10 -15 0 -16 2 -3 10 19 12 20 12 20
0z m-335 -30 c3 -5 2 -10 -4 -10 -5 0 -13 5 -16 10 -3 6 -2 10 4 10 5 0 13 -4
16 -10z"/>
<path d="M4273 5636 c0 -18 3 -24 9 -18 7 7 7 16 0 28 -8 14 -9 13 -9 -10z"/>
<path d="M6080 5619 c0 -5 5 -7 10 -4 6 3 10 8 10 11 0 2 -4 4 -10 4 -5 0 -10
-5 -10 -11z"/>
<path d="M6120 5600 c-8 -5 -10 -10 -5 -10 6 0 17 5 25 10 8 5 11 10 5 10 -5
0 -17 -5 -25 -10z"/>
<path d="M6050 5579 c0 -5 5 -7 10 -4 6 3 10 8 10 11 0 2 -4 4 -10 4 -5 0 -10
-5 -10 -11z"/>
<path d="M4420 5520 c-9 -6 -10 -10 -3 -10 6 0 15 5 18 10 8 12 4 12 -15 0z"/>
<path d="M6250 5470 c0 -5 5 -10 10 -10 6 0 10 5 10 10 0 6 -4 10 -10 10 -5 0
-10 -4 -10 -10z"/>
<path d="M6280 5456 c0 -2 7 -6 15 -10 8 -3 15 -1 15 4 0 6 -7 10 -15 10 -8 0
-15 -2 -15 -4z"/>
<path d="M5730 5370 c-8 -5 -11 -12 -8 -16 4 -3 14 1 23 10 18 17 9 21 -15 6z"/>
<path d="M4780 5300 c0 -5 5 -10 10 -10 6 0 10 5 10 10 0 6 -4 10 -10 10 -5 0
-10 -4 -10 -10z"/>
<path d="M6360 5259 c0 -5 5 -7 10 -4 6 3 10 8 10 11 0 2 -4 4 -10 4 -5 0 -10
-5 -10 -11z"/>
<path d="M5040 5219 c0 -5 5 -7 10 -4 6 3 10 8 10 11 0 2 -4 4 -10 4 -5 0 -10
-5 -10 -11z"/>
<path d="M5435 5220 c3 -5 10 -10 16 -10 5 0 9 5 9 10 0 6 -7 10 -16 10 -8 0
-12 -4 -9 -10z"/>
<path d="M2010 4775 c0 -27 3 -45 7 -41 7 7 5 77 -3 85 -2 2 -4 -17 -4 -44z"/>
<path d="M8215 4480 c-3 -5 -1 -10 4 -10 6 0 11 5 11 10 0 6 -2 10 -4 10 -3 0
-8 -4 -11 -10z"/>
<path d="M8426 2651 c-44 -64 -72 -110 -63 -102 29 23 154 208 146 215 -2 2
-40 -49 -83 -113z"/>
<path d="M8306 2483 c-6 -14 -5 -15 5 -6 7 7 10 15 7 18 -3 3 -9 -2 -12 -12z"/>
<path d="M8259 2423 c-13 -16 -12 -17 4 -4 16 13 21 21 13 21 -2 0 -10 -8 -17
-17z"/>
<path d="M8224 2378 l-19 -23 23 19 c12 11 22 21 22 23 0 8 -8 2 -26 -19z"/>
<path d="M8084 2219 c-17 -18 -22 -28 -12 -24 14 6 55 55 45 55 -2 0 -16 -14
-33 -31z"/>
<path d="M7978 2107 c-31 -34 -60 -66 -65 -71 -4 -6 6 1 22 15 40 32 109 108
104 114 -3 2 -30 -24 -61 -58z"/>
<path d="M7859 1983 l-34 -38 38 34 c34 33 42 41 34 41 -2 0 -19 -17 -38 -37z"/>
</g>
</svg>
